<?xml version="1.0" encoding="iso-8859-1"?>
<!-- Generator: Adobe Illustrator 19.2.1, SVG Export Plug-In . SVG Version: 6.00 Build 0)  -->
<svg version="1.1" id="Layer_1" xmlns="http://www.w3.org/2000/svg" xmlns:xlink="http://www.w3.org/1999/xlink" x="0px" y="0px"
	 viewBox="0 0 123.667 68.667" style="enable-background:new 0 0 123.667 68.667;" xml:space="preserve">
<g>
	<g>
		<g>
			<g>
				<g>
					<g>
						<path style="fill:none;" d="M33.424,65.174c-0.978,0.12-0.983,0.239-0.009,0.359h61.204c-0.976-0.12-0.981-0.239-0.009-0.359
							H33.424z"/>
						<path style="fill:#F1856E;" d="M32.449,65.174h-0.547c-0.002,0.12-0.007,0.239-0.009,0.359h0.546
							C32.441,65.413,32.446,65.294,32.449,65.174z"/>
						<path style="fill:#F1856E;" d="M93.644,65.533h0.551c-0.001-0.12-0.006-0.239-0.009-0.359h-0.551
							C93.637,65.294,93.642,65.413,93.644,65.533z"/>
						<path style="fill:#F7A18D;" d="M63.042,39.489c-14.527,0-26.334,11.59-26.658,26.008H89.7
							C89.376,51.079,77.569,39.489,63.042,39.489z"/>
						<g>
							<path style="opacity:0.85;fill:#CCD3DB;" d="M34.867,17.136l-0.455-0.794l-0.397,0.227l0.455,0.794l8.208,14.324
								c0.133-0.076,0.263-0.154,0.397-0.228L34.867,17.136z"/>
							<path style="opacity:0.85;fill:#CCD3DB;" d="M14.065,37.458l-0.517-0.299l-0.229,0.396l0.512,0.295l14.386,8.307
								c0.075-0.133,0.151-0.265,0.228-0.397L14.065,37.458z"/>
							<path style="opacity:0.85;fill:#B9DBE2;" d="M32.715,48.786l-1.247-0.72l-3.251-1.877
								c-3.193,5.612-5.025,12.098-5.025,19.017h8.71c0.111-5.293,1.544-10.261,3.988-14.586L32.715,48.786z"/>
							<path style="opacity:0.85;fill:#B9DBE2;" d="M45.501,35.694l1.874,3.27c4.48-2.606,9.671-4.128,15.212-4.208v-4.207v-1.102
								v-2.775c-0.29-0.006-0.578-0.022-0.87-0.022c-6.764,0-13.117,1.749-18.642,4.81l1.685,2.941L45.501,35.694z"/>
							<path style="opacity:0.85;fill:#B9DBE2;" d="M32.947,48.36l3.171,1.831c2.639-4.511,6.382-8.3,10.862-10.995l-1.868-3.259
								l-0.747-1.304l-1.688-2.946c-5.893,3.358-10.811,8.222-14.233,14.073l3.246,1.874L32.947,48.36z"/>
						</g>
						<g>
							<path style="opacity:0.85;fill:#CCD3DB;" d="M91.291,17.28l0.317-0.543l-0.395-0.231l-0.32,0.548l-8.948,15.333
								c0.13,0.08,0.257,0.165,0.385,0.247L91.291,17.28z"/>
							<path style="opacity:0.85;fill:#CCD3DB;" d="M112.01,37.697l0.328-0.193l-0.232-0.394L109.231,39l-13.652,7.81
								c0,0,0.177,0.269,0.248,0.404L112.01,37.697z"/>
							<path style="fill:#B9DBE2;" d="M93.639,48.513l-3.427,2.016c2.471,4.343,3.92,9.339,4.032,14.664l6.057,0.488
								c0-6.495-1.614-13.098-4.453-18.466l-1.278,0.752L93.639,48.513z"/>
							<path style="fill:#B9DBE2;" d="M80.775,35.301l-2.118,3.63c4.654,2.694,8.543,6.557,11.268,11.185l3.434-2.02l0.93-0.547
								l1.291-0.759c-3.141-5.772-7.72-10.644-13.249-14.154l-1.039,1.78L80.775,35.301z"/>
							<path style="fill:#B9DBE2;" d="M63.044,30.539v4.211c5.526,0,10.715,1.437,15.214,3.955l2.122-3.636l0.517-0.886l1.048-1.795
								c-5.527-3.417-11.982-5.47-18.901-5.705v2.759V30.539z"/>
						</g>
						<g style="opacity:0.85;">
							<path style="fill:#CCD3DB;" d="M83.714,19.669c-0.502,0.386-1.043,0.563-1.624,0.531l-0.458-1.589
								c0.269,0.076,0.546,0.113,0.832,0.11c0.286-0.003,0.555-0.038,0.808-0.104c0.253-0.067,0.47-0.169,0.652-0.307
								c0.182-0.138,0.308-0.303,0.379-0.494c0.178-0.482,0.125-0.952-0.157-1.41c-0.282-0.457-0.674-0.779-1.176-0.964
								c-0.392-0.144-0.795-0.181-1.208-0.111c-0.414,0.07-0.805,0.225-1.173,0.466c-0.368,0.241-0.69,0.533-0.965,0.877
								c-0.275,0.344-0.481,0.701-0.618,1.073l-2.437,6.614l-1.838-0.677l2.437-6.614c0.144-0.392,0.226-0.806,0.245-1.244
								c0.019-0.438-0.031-0.861-0.148-1.27c-0.118-0.408-0.304-0.771-0.558-1.087c-0.254-0.316-0.567-0.543-0.939-0.68
								c-0.573-0.211-1.128-0.253-1.665-0.126c-0.537,0.127-0.904,0.457-1.1,0.989c-0.078,0.211-0.091,0.434-0.041,0.669
								c0.05,0.235,0.145,0.464,0.286,0.687c0.14,0.223,0.316,0.427,0.527,0.613c0.211,0.186,0.428,0.332,0.652,0.437l-1.136,0.899
								c-0.496-0.297-0.827-0.775-0.994-1.436c-0.167-0.661-0.123-1.354,0.134-2.081c0.141-0.382,0.347-0.702,0.619-0.961
								c0.272-0.259,0.577-0.452,0.915-0.578c0.338-0.127,0.691-0.188,1.06-0.183c0.369,0.005,0.724,0.07,1.066,0.196
								c0.462,0.17,0.864,0.41,1.207,0.718c0.342,0.309,0.615,0.669,0.817,1.079c0.202,0.411,0.329,0.849,0.38,1.313
								c0.052,0.464,0.031,0.93-0.061,1.397c0.243-0.412,0.542-0.775,0.898-1.089c0.355-0.314,0.74-0.554,1.156-0.721
								c0.916-0.381,1.856-0.394,2.821-0.039c0.321,0.118,0.61,0.296,0.865,0.533s0.455,0.513,0.602,0.829
								c0.146,0.316,0.229,0.655,0.25,1.016c0.021,0.361-0.033,0.718-0.163,1.069C84.597,18.734,84.215,19.284,83.714,19.669z"/>
							<path style="fill:#CCD3DB;" d="M52.583,19.93c-0.041,0.527-0.174,1.018-0.4,1.476c-0.227,0.458-0.539,0.86-0.938,1.206
								c-0.399,0.346-0.852,0.603-1.361,0.77c-0.488,0.161-0.992,0.223-1.511,0.186c-0.52-0.037-1.014-0.17-1.484-0.398
								c-0.47-0.228-0.88-0.541-1.231-0.938c-0.351-0.397-0.614-0.86-0.788-1.389c-0.141-0.427-0.207-0.859-0.199-1.295
								c0.008-0.437,0.076-0.854,0.204-1.251c0.128-0.398,0.293-0.742,0.496-1.034c0.202-0.292,0.425-0.513,0.67-0.661
								c-0.332-0.015-0.658-0.073-0.98-0.176c-0.321-0.102-0.639-0.271-0.953-0.505c-0.314-0.235-0.609-0.557-0.886-0.967
								c-0.276-0.41-0.512-0.91-0.706-1.5c0.36,0.546,0.762,0.977,1.205,1.293c0.443,0.316,0.889,0.532,1.339,0.649
								c0.45,0.116,0.875,0.165,1.274,0.146c0.4-0.019,0.752-0.079,1.057-0.18c0.935-0.309,1.592-0.813,1.97-1.512
								c0.378-0.7,0.511-1.628,0.399-2.786c0.332,1.006,0.377,1.921,0.137,2.745c-0.241,0.823-0.704,1.427-1.389,1.811
								c0.389-0.016,0.785,0.031,1.188,0.14c0.402,0.11,0.779,0.284,1.128,0.524c0.35,0.24,0.663,0.54,0.939,0.899
								c0.276,0.36,0.487,0.758,0.631,1.195C52.56,18.887,52.624,19.404,52.583,19.93z M50.592,18.381
								c-0.342-0.439-0.73-0.801-1.162-1.087c-0.432-0.286-0.879-0.476-1.339-0.573c-0.46-0.096-0.888-0.079-1.285,0.052
								c-0.478,0.158-0.802,0.507-0.973,1.048c-0.171,0.541-0.151,1.132,0.061,1.772c0.161,0.488,0.413,0.943,0.755,1.366
								c0.342,0.423,0.733,0.779,1.172,1.067c0.439,0.289,0.887,0.485,1.344,0.588c0.457,0.103,0.868,0.094,1.234-0.027
								c0.488-0.161,0.823-0.503,1.006-1.025c0.183-0.522,0.172-1.094-0.033-1.714C51.195,19.309,50.934,18.82,50.592,18.381z"/>
							<path style="fill:#CCD3DB;" d="M28.522,38.476l-0.089-0.093c0.193-0.201,0.295-0.422,0.307-0.664
								c0.012-0.242-0.09-0.475-0.306-0.698l-6.39-6.619c-0.476-0.493-0.945-0.524-1.407-0.093l-0.078-0.081l6.85-6.613l0.078,0.081
								c-0.424,0.439-0.402,0.901,0.067,1.386l6.39,6.619c0.216,0.224,0.441,0.337,0.675,0.341c0.234,0.004,0.456-0.086,0.663-0.272
								l0.089,0.093L28.522,38.476z M26.111,26.476c-0.179-0.185-0.368-0.281-0.568-0.288c-0.201-0.007-0.401,0.086-0.601,0.279
								l-1.502,1.45c-0.347,0.335-0.33,0.698,0.049,1.091l6.39,6.619c0.156,0.162,0.334,0.246,0.535,0.254
								c0.2,0.007,0.374-0.06,0.52-0.201l1.502-1.45c0.177-0.171,0.271-0.362,0.283-0.574c0.011-0.212-0.061-0.399-0.217-0.56
								L26.111,26.476z"/>
							<path style="fill:#CCD3DB;" d="M20.278,49.114c0.31,0.573,0.533,1.193,0.667,1.862c0.135,0.669,0.192,1.345,0.173,2.027
								c-0.019,0.683-0.108,1.318-0.268,1.907c-0.21,0.775-0.457,1.49-0.741,2.145c-0.283,0.655-0.636,1.231-1.059,1.725
								c-0.423,0.495-0.934,0.847-1.535,1.056c-0.6,0.209-1.287,0.208-2.062-0.003c-0.424-0.115-0.785-0.316-1.084-0.602
								c-0.299-0.286-0.53-0.621-0.693-1.003c-0.162-0.382-0.252-0.787-0.269-1.213c-0.017-0.426,0.027-0.836,0.134-1.228
								c0.236-0.868,0.624-1.478,1.163-1.83c0.54-0.353,1.088-0.453,1.646-0.302c0.672,0.182,1.174,0.53,1.506,1.041
								c0.332,0.512,0.42,1.057,0.263,1.635c-0.087-0.456-0.234-0.823-0.441-1.101c-0.208-0.278-0.523-0.475-0.946-0.59
								c-0.578-0.157-1.073-0.1-1.486,0.171c-0.412,0.271-0.691,0.675-0.836,1.212c-0.011,0.041-0.023,0.105-0.035,0.19
								c-0.012,0.086-0.024,0.149-0.035,0.19c-0.041,0.355,0.049,0.718,0.27,1.088c0.221,0.371,0.528,0.609,0.92,0.716
								c0.475,0.129,0.913,0.132,1.313,0.007c0.4-0.124,0.76-0.356,1.079-0.697c0.32-0.34,0.601-0.763,0.844-1.268
								c0.243-0.505,0.453-1.083,0.629-1.734c0.137-0.506,0.246-1.048,0.325-1.626c0.079-0.577,0.114-1.175,0.105-1.794
								c-0.01-0.618-0.071-1.22-0.184-1.805c-0.113-0.585-0.293-1.117-0.54-1.594C19.575,48.069,19.967,48.541,20.278,49.114z
								 M16.383,46.608c0.301,0.281,0.529,0.615,0.685,1.001c0.156,0.386,0.243,0.79,0.262,1.211
								c0.019,0.421-0.025,0.828-0.132,1.22c-0.236,0.868-0.624,1.481-1.165,1.838c-0.541,0.358-1.09,0.461-1.648,0.309
								c-0.672-0.182-1.173-0.532-1.504-1.049c-0.331-0.517-0.418-1.065-0.261-1.643c0.087,0.456,0.231,0.823,0.434,1.1
								c0.202,0.277,0.515,0.473,0.938,0.588c0.589,0.16,1.085,0.109,1.489-0.153c0.404-0.262,0.68-0.666,0.829-1.214
								c0.034-0.124,0.057-0.251,0.07-0.38c0.044-0.365-0.043-0.73-0.26-1.094c-0.217-0.364-0.522-0.599-0.915-0.706
								c-0.475-0.129-0.913-0.131-1.313-0.007c-0.4,0.124-0.762,0.356-1.087,0.695c-0.325,0.339-0.608,0.758-0.849,1.258
								c-0.241,0.5-0.45,1.076-0.627,1.727c-0.138,0.506-0.246,1.048-0.325,1.626c-0.079,0.578-0.117,1.175-0.112,1.791
								s0.065,1.219,0.183,1.805c0.118,0.587,0.301,1.119,0.548,1.596c-0.475-0.373-0.869-0.843-1.181-1.411
								c-0.312-0.567-0.536-1.183-0.671-1.846c-0.136-0.663-0.193-1.334-0.17-2.009c0.023-0.676,0.114-1.309,0.274-1.897
								c0.213-0.785,0.461-1.505,0.745-2.16c0.284-0.655,0.637-1.233,1.062-1.733c0.424-0.5,0.934-0.855,1.529-1.066
								c0.595-0.21,1.28-0.21,2.055,0.001C15.71,46.126,16.082,46.327,16.383,46.608z"/>
							<path style="fill:#CCD3DB;" d="M96.514,38.357c-0.027-0.633,0.048-1.281,0.226-1.943c0.178-0.662,0.452-1.312,0.824-1.949
								c0.371-0.637,0.819-1.226,1.341-1.765c-0.101-0.145-0.201-0.274-0.298-0.388c-0.098-0.114-0.228-0.258-0.39-0.431
								c-0.111-0.119-0.205-0.215-0.282-0.289c-0.077-0.073-0.219-0.202-0.425-0.386c-0.574,0.484-1.19,0.888-1.846,1.21
								c-0.657,0.322-1.324,0.552-2.001,0.688c-0.677,0.136-1.333,0.171-1.968,0.105c-0.635-0.066-1.204-0.24-1.707-0.523
								c1.103,0.064,2.104-0.138,3-0.607c0.896-0.469,1.901-1.207,3.015-2.212c-0.207-0.149-0.454-0.307-0.74-0.477
								c-0.286-0.169-0.573-0.325-0.86-0.467c0.135-0.075,0.298-0.185,0.489-0.328c0.072-0.051,0.136-0.093,0.19-0.126
								c0.68,0.271,1.193,0.545,1.538,0.823c0.943-0.932,1.695-1.89,2.255-2.875c0.56-0.985,0.888-1.967,0.984-2.945
								c0.257,0.513,0.405,1.08,0.446,1.701c0.041,0.621-0.019,1.254-0.178,1.898c-0.159,0.645-0.411,1.273-0.755,1.885
								c-0.344,0.612-0.755,1.166-1.232,1.663c0.326,0.277,0.567,0.497,0.72,0.662c0.273,0.292,0.498,0.57,0.674,0.833
								c0.537-0.45,1.121-0.824,1.75-1.121c0.629-0.297,1.271-0.503,1.926-0.617c0.654-0.114,1.287-0.133,1.899-0.054
								c0.612,0.078,1.169,0.268,1.672,0.569c-0.992,0.036-1.996,0.298-3.013,0.785c-1.017,0.487-2.018,1.174-3.003,2.06
								c0.152,0.218,0.289,0.461,0.413,0.731c0.123,0.27,0.238,0.535,0.344,0.795c-0.084,0.13-0.177,0.264-0.279,0.402
								c-0.102,0.138-0.204,0.272-0.306,0.401c-0.054-0.223-0.168-0.519-0.341-0.887c-0.173-0.369-0.323-0.657-0.448-0.865
								c-1.088,1.033-1.9,1.983-2.434,2.849c-0.534,0.866-0.803,1.848-0.805,2.945C96.673,39.572,96.541,38.99,96.514,38.357z"/>
							<path style="fill:#CCD3DB;" d="M107.819,60.064c-0.673-0.072-1.074-0.306-1.206-0.703c-0.08-0.24-0.07-0.507,0.03-0.8
								c0.099-0.294,0.272-0.574,0.52-0.841c0.289-0.316,0.671-0.75,1.148-1.302c0.48-0.542,0.814-0.916,1-1.122
								c0.186-0.207,0.364-0.402,0.535-0.586c0.243-0.243,0.334-0.458,0.272-0.646c-0.055-0.167-0.25-0.264-0.584-0.293
								c-0.25-0.021-0.626-0.056-1.128-0.103c-0.502-0.048-0.864-0.081-1.084-0.1c-0.221-0.019-0.529-0.05-0.925-0.092
								c-0.396-0.042-0.678-0.07-0.844-0.084c-0.64-0.077-1.034-0.34-1.182-0.789c-0.066-0.198-0.064-0.41,0.006-0.636
								c0.07-0.226,0.195-0.433,0.376-0.62c0.275-0.288,0.57-0.586,0.885-0.893c0.315-0.307,0.712-0.697,1.193-1.169
								c0.439-0.423,0.744-0.722,0.919-0.895c0.226-0.226,0.315-0.411,0.267-0.557c-0.052-0.156-0.247-0.274-0.586-0.353
								c-0.339-0.079-0.766-0.125-1.28-0.14c0.81-0.246,1.547-0.32,2.211-0.221c0.664,0.098,1.059,0.34,1.187,0.726
								c0.076,0.229,0.038,0.5-0.113,0.81c-0.152,0.311-0.426,0.654-0.823,1.029l-0.01,0.021c-0.501,0.479-0.944,0.907-1.328,1.283
								c-0.385,0.377-0.727,0.724-1.026,1.044l-0.099,0.12c-0.202,0.229-0.292,0.375-0.271,0.437
								c0.028,0.083,0.231,0.138,0.61,0.162c0.344,0.025,0.971,0.083,1.882,0.175c0.935,0.095,1.598,0.158,1.991,0.19
								c0.333,0.028,0.616,0.12,0.847,0.275c0.231,0.155,0.385,0.347,0.461,0.577c0.083,0.25,0.087,0.515,0.012,0.795
								c-0.075,0.28-0.242,0.555-0.499,0.826c-0.317,0.337-0.722,0.781-1.216,1.333c-0.494,0.552-1.001,1.128-1.519,1.729
								c-0.251,0.292-0.352,0.51-0.303,0.656c0.052,0.156,0.261,0.246,0.628,0.269c0.367,0.023,0.882,0.023,1.546-0.001
								c0.149-0.003,0.269-0.009,0.36-0.015C109.442,59.968,108.491,60.136,107.819,60.064z M113.057,58.603
								c-0.671-0.084-1.074-0.33-1.209-0.737c-0.076-0.229-0.066-0.488,0.03-0.774c0.096-0.287,0.262-0.562,0.499-0.826
								c0.23-0.25,0.653-0.72,1.269-1.411c0.337-0.378,0.616-0.691,0.836-0.937c0.219-0.246,0.419-0.463,0.6-0.651
								c0.23-0.25,0.317-0.458,0.261-0.625s-0.244-0.266-0.568-0.298c-0.309-0.025-0.611-0.052-0.904-0.082
								c-0.294-0.03-0.71-0.071-1.248-0.124c-0.539-0.053-0.892-0.089-1.061-0.108c-0.169-0.019-0.439-0.048-0.81-0.087
								c-0.299-0.028-0.547-0.114-0.745-0.256c-0.198-0.143-0.332-0.319-0.401-0.527c-0.066-0.198-0.066-0.409-0.002-0.633
								c0.065-0.224,0.187-0.43,0.368-0.617c0.17-0.184,0.396-0.412,0.676-0.684c0.28-0.273,0.577-0.565,0.89-0.877
								c0.313-0.312,0.606-0.598,0.879-0.856c0.273-0.259,0.462-0.44,0.566-0.544c0.212-0.198,0.294-0.37,0.246-0.516
								c-0.052-0.156-0.246-0.269-0.581-0.337c-0.335-0.068-0.79-0.111-1.363-0.129c0.834-0.242,1.59-0.319,2.268-0.232
								c0.677,0.088,1.08,0.325,1.208,0.71c0.073,0.219,0.038,0.48-0.105,0.782c-0.143,0.302-0.413,0.641-0.809,1.016
								c-0.372,0.343-0.78,0.73-1.221,1.161c-0.442,0.43-0.828,0.828-1.159,1.192l-0.026,0.026
								c-0.251,0.292-0.366,0.469-0.345,0.531c0.024,0.073,0.226,0.122,0.605,0.147c0.285,0.021,0.604,0.048,0.956,0.082
								c0.352,0.033,0.727,0.071,1.123,0.114c0.841,0.091,1.44,0.153,1.798,0.185c0.333,0.028,0.616,0.122,0.849,0.283
								c0.233,0.16,0.389,0.36,0.468,0.6c0.173,0.521,0.007,1.051-0.497,1.589c-0.16,0.181-0.379,0.421-0.655,0.721
								c-0.277,0.3-0.503,0.552-0.679,0.755c-0.176,0.203-0.394,0.452-0.655,0.747c-0.261,0.295-0.51,0.574-0.746,0.838
								c-0.226,0.26-0.315,0.463-0.267,0.61c0.038,0.115,0.148,0.203,0.331,0.264c0.182,0.061,0.4,0.099,0.654,0.113
								c0.253,0.014,0.516,0.011,0.787-0.009c0.271-0.021,0.513-0.043,0.725-0.067C114.673,58.527,113.727,58.687,113.057,58.603z"
								/>
						</g>
						<g>
							<path style="fill:#6A7E98;" d="M90.521,65.709c-0.041-0.068-0.08-0.137-0.124-0.205c-0.181-0.276-0.381-0.543-0.591-0.797
								c-0.21-0.254-0.429-0.494-0.647-0.718c-0.544-0.559-1.08-1.011-1.44-1.297c-0.144-0.114-0.26-0.202-0.338-0.259
								c-0.17-0.126-0.348-0.253-0.535-0.382c-0.187-0.129-0.384-0.261-0.592-0.396h0h0c0.015-0.016,0.029-0.032,0.042-0.048
								c0.031,0.031,0.066,0.056,0.104,0.074c0.115,0.055,0.26,0.053,0.417-0.009c0.016,0.096,0.059,0.181,0.127,0.251
								c0.112,0.114,0.29,0.18,0.487,0.18c0.196,0,0.384-0.063,0.515-0.172c0.331-0.275,0.533-0.656,0.681-1.058
								c0.049-0.134,0.093-0.271,0.133-0.406c0.016-0.052,0.028-0.116,0.035-0.186s0.01-0.145,0.006-0.22
								c-0.008-0.15-0.042-0.296-0.114-0.388c-0.028-0.035-0.06-0.061-0.095-0.079c-0.036-0.018-0.075-0.026-0.117-0.026
								c-0.084,0.001-0.18,0.038-0.283,0.115c-0.1,0.074-0.174,0.169-0.233,0.267c-0.058,0.099-0.101,0.202-0.139,0.294
								l-0.122,0.293c-0.011,0.027-0.023,0.053-0.037,0.079c-0.006-0.016-0.013-0.036-0.02-0.061
								c0.054-0.252,0.074-0.537,0.06-0.847c-0.013-0.288-0.034-0.614-0.129-0.897l0,0l0,0l0.009-0.001
								c0.072-0.007,0.149-0.015,0.229-0.023c0.08-0.009,0.162-0.019,0.246-0.03c0.167-0.024,0.339-0.055,0.501-0.1
								c0.324-0.09,0.611-0.236,0.748-0.484c0.039-0.07,0.061-0.136,0.068-0.198s-0.003-0.119-0.028-0.172
								c-0.043-0.09-0.127-0.154-0.229-0.202c-0.102-0.048-0.221-0.079-0.337-0.105c-0.151-0.033-0.299-0.06-0.444-0.084
								c-0.145-0.024-0.287-0.045-0.427-0.065c-0.127-0.019-0.253-0.037-0.377-0.057c-0.374-0.061-0.742-0.138-1.129-0.287
								c-0.259-0.1-0.516-0.196-0.773-0.272c-0.257-0.077-0.513-0.134-0.771-0.159c-0.015-0.019-0.035-0.034-0.059-0.044
								c-0.118-0.05-0.234-0.107-0.347-0.168c-0.454-0.245-0.868-0.57-1.239-0.932c-0.743-0.724-1.317-1.595-1.697-2.264
								c-0.142-0.251-0.257-0.474-0.343-0.649l-0.151-0.307c-0.211-0.432-0.426-0.871-0.65-1.308
								c-0.224-0.438-0.457-0.874-0.703-1.3c-0.086-0.148-0.177-0.294-0.272-0.437c-0.285-0.428-0.605-0.834-0.917-1.229
								c-0.161-0.204-0.325-0.412-0.485-0.624c-0.16-0.212-0.315-0.428-0.46-0.648c-0.403-0.614-0.732-1.255-1-1.918
								c-0.179-0.442-0.332-0.894-0.462-1.353c-0.195-0.689-0.339-1.396-0.447-2.114c-0.036-0.239-0.067-0.48-0.096-0.722
								c-0.056-0.484-0.098-0.971-0.13-1.461c-0.079-1.225-0.094-2.466-0.108-3.693c-0.007-0.58-0.014-1.153-0.028-1.715
								l-0.006-0.223c-0.019-0.778-0.038-1.562-0.103-2.331c-0.016-0.192-0.035-0.383-0.058-0.573
								c-0.045-0.38-0.105-0.754-0.185-1.121c-0.359-1.649-1.123-3.135-2.815-4.204c-0.825-0.521-1.751-0.938-2.686-1.321
								c-0.311-0.128-0.624-0.252-0.933-0.375c-0.175-0.07-0.345-0.139-0.518-0.209c-0.173-0.069-0.349-0.139-0.518-0.209
								l-0.082-0.034c-0.25-0.104-0.508-0.211-0.755-0.324c-0.008-0.02-0.027-0.037-0.048-0.047
								c-0.022-0.01-0.046-0.013-0.066-0.007c-0.414-0.198-0.814-0.428-1.129-0.748c-0.158-0.16-0.294-0.341-0.399-0.552
								c-0.106-0.211-0.181-0.451-0.217-0.727c-0.038-0.292-0.063-0.59-0.081-0.888c-0.018-0.298-0.029-0.596-0.04-0.89
								c-0.007-0.172-0.013-0.344-0.02-0.515c0-0.002,0-0.003,0-0.005l0,0l0,0c0.101-0.087,0.197-0.171,0.288-0.252
								c0.091-0.081,0.176-0.158,0.254-0.229c0.156-0.143,0.282-0.266,0.368-0.357c0.13-0.139,0.246-0.274,0.351-0.407
								c0.105-0.133,0.199-0.265,0.282-0.397c0.202-0.32,0.352-0.675,0.472-0.98c0.053-0.137,0.104-0.281,0.153-0.439
								c0.049-0.158,0.097-0.33,0.145-0.521c0.048-0.078,0.106-0.149,0.168-0.218c0.063-0.069,0.131-0.136,0.201-0.205
								c0.146-0.144,0.296-0.293,0.403-0.472c0.068-0.113,0.124-0.237,0.169-0.37c0.045-0.133,0.079-0.277,0.101-0.428
								c0.01-0.068,0.004-0.142,0.005-0.213c0.002-0.071,0.012-0.14,0.005-0.213c-0.006-0.07-0.023-0.129-0.044-0.184
								c-0.021-0.054-0.048-0.103-0.074-0.151c-0.009-0.016-0.021-0.028-0.036-0.037c-0.015-0.009-0.032-0.016-0.05-0.023
								c-0.002-0.002-0.005-0.004-0.007-0.006l-0.233-0.162c0.009-0.012,0.016-0.026,0.02-0.041c0.093-0.326,0.166-0.658,0.227-0.99
								c0.031-0.166,0.058-0.331,0.084-0.494c0.025-0.164,0.049-0.326,0.071-0.485c0.038-0.28,0.076-0.605,0.089-0.949
								c0.007-0.172,0.008-0.35-0.001-0.529s-0.025-0.361-0.054-0.542c-0.043-0.273-0.093-0.557-0.154-0.844
								c-0.092-0.432-0.209-0.873-0.369-1.303c-0.16-0.43-0.364-0.85-0.628-1.238c-0.079-0.116-0.165-0.229-0.257-0.338
								c-0.276-0.327-0.609-0.62-0.988-0.874c-0.253-0.169-0.526-0.32-0.817-0.451c-0.291-0.131-0.599-0.243-0.922-0.332
								c-0.424-0.117-0.848-0.195-1.266-0.231c-0.333-0.029-0.66,0.275-0.979,0.299c-0.01,0.001-0.019,0.017-0.029,0.018v62.916
								H90.521z M67.92,47.386c0.026-0.1,0.056-0.207,0.084-0.311c0.028-0.104,0.054-0.204,0.084-0.311
								c0.067-0.222,0.139-0.441,0.213-0.659c0.074-0.217,0.15-0.432,0.225-0.643c0.112-0.316,0.218-0.615,0.311-0.905
								c0.073-0.228,0.148-0.456,0.223-0.685c0.256-0.78,0.521-1.587,0.713-2.39c0.004-0.009,0.011-0.025,0.011-0.046
								c0.18-0.76,0.275-1.434,0.291-2.06l0.006-0.003c0.034-0.02,0.068-0.039,0.101-0.06c0.377-0.232,0.696-0.523,0.95-0.867
								c0.023,0.209,0.054,0.417,0.092,0.624c0.113,0.621,0.281,1.232,0.446,1.829c0.059,0.214,0.118,0.43,0.176,0.647
								c0.172,0.652,0.323,1.319,0.381,1.995c0.02,0.229,0.04,0.452,0.062,0.669c0.044,0.434,0.095,0.846,0.164,1.243
								c0.104,0.596,0.249,1.158,0.474,1.714c0.15,0.37,0.334,0.737,0.565,1.109c0.917,1.476,2.015,2.842,3.076,4.068
								c0.354,0.409,0.703,0.802,1.04,1.178c0.289,0.347,0.604,0.698,0.966,1.089c0.121,0.13,0.247,0.265,0.379,0.405
								c0.431,0.48,0.874,0.979,1.315,1.494c0.441,0.515,0.88,1.047,1.302,1.59c-0.022,0.095-0.035,0.189-0.04,0.279
								c-0.004,0.09,0,0.176,0.014,0.256c0.017,0.101,0.04,0.201,0.07,0.3c0.029,0.1,0.065,0.2,0.108,0.3l0,0l0,0
								c-0.442-0.2-0.887-0.393-1.333-0.582c-0.893-0.378-1.793-0.738-2.685-1.087c-0.446-0.175-0.89-0.347-1.331-0.518
								l-0.769-0.299c-0.377-0.147-0.786-0.28-1.221-0.421l-0.22-0.071l-0.506-0.192c-0.232-0.088-0.455-0.173-0.666-0.254
								c-0.211-0.081-0.412-0.158-0.601-0.231c-0.221-0.106-0.418-0.214-0.594-0.324c-0.088-0.055-0.17-0.111-0.247-0.168
								c-0.077-0.057-0.15-0.115-0.217-0.174c-0.511-0.446-1.002-0.973-1.458-1.557c-0.152-0.195-0.3-0.396-0.443-0.602
								c-0.287-0.413-0.555-0.847-0.8-1.297c-0.245-0.449-0.467-0.913-0.66-1.385c-0.075-0.182-0.132-0.372-0.171-0.572
								c-0.039-0.2-0.061-0.409-0.065-0.631C67.726,48.429,67.788,47.939,67.92,47.386z"/>
							<path style="fill:#627794;" d="M62.532,2.492c-0.572,0.02-1.114,0.175-1.727,0.466l-0.051,0.024
								c-0.239,0.113-0.484,0.239-0.649,0.427c-0.696-0.159-1.352-0.142-1.907,0.05c-0.552,0.191-1.03,0.582-1.462,1.194
								c-0.357,0.505-0.603,0.987-0.755,1.473c-0.143,0.458-0.212,0.96-0.224,1.627c-0.014,0.829,0.029,1.601,0.129,2.297
								c0.05,0.348,0.118,0.722,0.209,1.143l0.011,0.05c0.068,0.31,0.132,0.59,0.232,0.868l-0.004,0.026
								c-0.005,0.035-0.009,0.07-0.017,0.105c-0.002,0.01-0.003,0.019-0.003,0.028l-0.015,0.008
								c-0.006,0.003-0.012,0.008-0.018,0.015l-0.002-0.003c-0.03,0.01-0.068,0.024-0.088,0.059
								c-0.054,0.096-0.109,0.196-0.122,0.335c-0.014,0.143-0.01,0.287,0.012,0.427c0.025,0.171,0.071,0.339,0.135,0.501
								c-0.028,0.106-0.077,0.298-0.128,0.544c-0.009,0.011-0.016,0.024-0.018,0.038c-0.028,0.186-0.071,0.379-0.111,0.565
								c-0.123,0.564-0.251,1.147-0.062,1.72c0.151,0.457,0.466,0.796,0.765,1.068c-0.199,0.349-0.383,0.728-0.38,1.176
								c0.003,0.294,0.107,0.601,0.301,0.889c0.066,0.098,0.144,0.196,0.236,0.299c-0.189,0.16-0.375,0.364-0.431,0.651
								c-0.044,0.225,0.021,0.472,0.2,0.755c0.123,0.195,0.271,0.362,0.454,0.546c-0.2,0.197-0.42,0.462-0.402,0.779
								c0.009,0.159,0.071,0.321,0.188,0.494c-0.234,0.094-0.47,0.188-0.705,0.281c-1.263,0.503-2.569,1.022-3.787,1.643
								c-3.353,1.71-3.483,4.972-3.607,8.127l-0.002,0.035c-0.028,0.709-0.044,1.436-0.059,2.139
								c-0.081,3.708-0.164,7.541-2.065,10.931c-0.358,0.638-0.839,1.215-1.304,1.773c-0.181,0.217-0.362,0.434-0.537,0.655
								c-0.726,0.918-1.256,1.977-1.768,3l-0.168,0.335c-0.779,1.546-2.04,3.694-3.987,4.494c-0.034,0.014-0.06,0.037-0.075,0.066
								c-0.46,0.04-0.92,0.182-1.35,0.329c-0.151,0.052-0.3,0.114-0.445,0.173c-0.26,0.108-0.529,0.219-0.805,0.271
								c-0.261,0.049-0.538,0.068-0.805,0.085c-0.223,0.015-0.453,0.03-0.677,0.063c-0.02,0.003-0.493,0.075-0.62,0.31
								c-0.031,0.058-0.055,0.151,0.011,0.266c0.329,0.575,1.199,0.673,1.849,0.739c-0.074,0.236-0.095,0.504-0.111,0.705
								l-0.008,0.1c-0.026,0.288-0.01,0.574,0.048,0.852c-0.008,0.019-0.016,0.031-0.021,0.04c-0.009-0.011-0.023-0.03-0.04-0.06
								c-0.039-0.07-0.074-0.142-0.11-0.214l-0.039-0.079c-0.118-0.237-0.259-0.406-0.445-0.532c-0.162-0.11-0.386-0.05-0.491,0.123
								c-0.135,0.224-0.067,0.534,0.016,0.808c0.13,0.423,0.386,0.997,0.871,1.323c0.205,0.138,0.553,0.192,0.802,0.132
								c-2.219,1.206-3.592,2.433-4.147,3.707l30.284,0.024V2.492z M36.699,61.89c0.041-0.041,0.073-0.089,0.096-0.142
								c0.049,0.013,0.096,0.02,0.142,0.021C36.853,61.812,36.775,61.851,36.699,61.89z M54.855,51.272
								c-0.583,0.862-1.217,1.718-1.829,2.546l-1.374,1.864c-0.286,0.387-1.244,0.653-2.014,0.867
								c-0.315,0.088-0.613,0.171-0.823,0.251c-1.747,0.668-3.488,1.42-5.172,2.147l-0.895,0.386
								c-0.321,0.138-0.641,0.27-0.985,0.408c0.18-0.31,0.318-0.635,0.409-0.968c0.042-0.153,0.046-0.326,0.013-0.513
								c0.434-0.775,1.173-1.505,1.826-2.15c0.182-0.179,0.357-0.353,0.519-0.52c1.399-1.445,2.662-3.006,3.884-4.514
								c0.246-0.304,0.493-0.609,0.741-0.914c1.208-1.482,2.314-2.988,2.583-5.125c0.05-0.397,0.088-0.797,0.125-1.185
								c0.082-0.859,0.166-1.747,0.383-2.615c0.089-0.358,0.203-0.713,0.312-1.057c0.2-0.627,0.406-1.274,0.47-1.955
								c0.251,0.446,0.577,0.825,0.971,1.127c0.022,0.017,0.046,0.033,0.07,0.049l0.01,0.007c-0.001,0.138,0.003,0.276,0.009,0.414
								c0.011,0.304,0.042,0.609,0.094,0.931c0.155,1.026,0.466,2.071,0.767,3.082C55.724,46.441,56.457,48.904,54.855,51.272z
								 M59.666,20.369c-0.056,0.805-0.408,1.42-1.101,1.915c0.095-0.277,0.108-0.545,0.039-0.798
								c-0.03-0.11-0.075-0.219-0.136-0.331c0.425-0.227,0.661-0.588,0.652-1.002c-0.007-0.332-0.144-0.674-0.432-1.075
								c0.006-0.01,0.01-0.021,0.013-0.032c0.151-0.509,0.172-0.994,0.065-1.406c0.219,0.211,0.59,0.535,1.01,0.878
								C59.747,19.117,59.71,19.739,59.666,20.369z"/>
						</g>
						<g>
							<g>
								<g>
									<path style="fill:#3F597D;" d="M112.663,65.687c-0.542-0.019-1.627-0.058-2.95-0.105c-2.992-0.084-6.253-0.175-9.609-0.268
										c-3.385-0.066-6.867-0.134-10.271-0.2c-13.618-0.219-25.062-0.202-25.062-0.202s-0.431-0.001-1.218-0.002v1.949
										c0.787-0.001,1.218-0.002,1.218-0.002s11.445,0.017,25.062-0.202c3.405-0.066,6.886-0.134,10.271-0.2
										c3.357-0.094,6.618-0.185,9.609-0.268c1.323-0.047,2.408-0.086,2.95-0.105c2.002-0.074,3.138-0.193,4.811-0.198
										C115.801,65.878,114.666,65.76,112.663,65.687z"/>
								</g>
								<g>
									<path style="fill:#3F597D;" d="M38.433,65.067c-6.942,0.092-14.198,0.239-20.35,0.417c-2.834,0.091-5.159,0.167-6.32,0.204
										c-2.041,0.073-3.198,0.191-4.904,0.197c1.705,0.005,2.863,0.124,4.904,0.197c1.161,0.038,3.486,0.112,6.32,0.204
										c6.152,0.178,13.408,0.325,20.35,0.416c11.297,0.154,22.714,0.161,26.22,0.158V64.91
										C61.148,64.907,49.73,64.913,38.433,65.067z"/>
								</g>
							</g>
						</g>
					</g>
				</g>
			</g>
		</g>
	</g>
</g>
</svg>
